<svg width="10" height="9" viewBox="0 0 10 9" fill="none" xmlns="http://www.w3.org/2000/svg">
<path fill-rule="evenodd" clip-rule="evenodd" d="M1.89435 1.57565C1.98656 1.27594 2.26347 1.07143 2.57704 1.07143H3.57143C3.76867 1.07143 3.92857 0.91153 3.92857 0.714286C3.92857 0.517041 3.76867 0.357143 3.57143 0.357143H2.57704C1.94989 0.357143 1.39608 0.766175 1.21165 1.36559L0.0631729 5.09813C0.021293 5.23424 0 5.37584 0 5.51825V7.5C0 8.28898 0.639594 8.92857 1.42857 8.92857H8.57143C9.36041 8.92857 10 8.28898 10 7.5V5.51825C10 5.37584 9.97871 5.23424 9.93683 5.09813L8.78835 1.36559C8.60392 0.766175 8.05011 0.357143 7.42296 0.357143H6.42857C6.23133 0.357143 6.07143 0.517041 6.07143 0.714286C6.07143 0.91153 6.23133 1.07143 6.42857 1.07143H7.42296C7.73653 1.07143 8.01344 1.27594 8.10565 1.57565L9.1593 5H7.80504C7.26393 5 6.76927 5.30572 6.52728 5.78969L6.40527 6.03372C6.28427 6.27571 6.03694 6.42857 5.76639 6.42857H4.23361C3.96306 6.42857 3.71573 6.27571 3.59473 6.03372L3.47272 5.78969C3.23073 5.30572 2.73607 5 2.19496 5H0.8407L1.89435 1.57565Z" fill="#151928"/>
<path fill-rule="evenodd" clip-rule="evenodd" d="M5 0C5.19724 0 5.35714 0.159898 5.35714 0.357143V3.4235L6.17603 2.6046C6.31551 2.46513 6.54164 2.46513 6.68111 2.6046C6.82058 2.74408 6.82058 2.97021 6.68111 3.10968L5.25254 4.53825C5.11307 4.67773 4.88694 4.67773 4.74746 4.53825L3.31889 3.10968C3.17942 2.97021 3.17942 2.74408 3.31889 2.6046C3.45836 2.46513 3.68449 2.46513 3.82397 2.6046L4.64286 3.4235V0.357143C4.64286 0.159898 4.80276 0 5 0Z" fill="#151928"/>
</svg>
