<svg width="10" height="10" viewBox="0 0 10 10" fill="none" xmlns="http://www.w3.org/2000/svg">
<path fill-rule="evenodd" clip-rule="evenodd" d="M0 5C0 2.23858 2.23858 0 5 0C7.76142 0 10 2.23858 10 5C10 7.76142 7.76142 10 5 10C2.23858 10 0 7.76142 0 5ZM4.46474 4.26074C5.05255 3.96684 5.71441 4.49776 5.55501 5.13533L5.19142 6.58971L5.21269 6.57907C5.40268 6.48408 5.63371 6.56109 5.72871 6.75108C5.82371 6.94107 5.7467 7.1721 5.55671 7.26709L5.53543 7.27773C4.94762 7.57164 4.28576 7.04072 4.44515 6.40315L4.80875 4.94876L4.78747 4.9594C4.59748 5.0544 4.36645 4.97739 4.27146 4.7874C4.17646 4.59741 4.25347 4.36638 4.44346 4.27138L4.46474 4.26074ZM5 3.46154C5.21242 3.46154 5.38462 3.28934 5.38462 3.07692C5.38462 2.86451 5.21242 2.69231 5 2.69231C4.78758 2.69231 4.61538 2.86451 4.61538 3.07692C4.61538 3.28934 4.78758 3.46154 5 3.46154Z" fill="#2D3748"/>
</svg>
