<svg width="50" height="50" viewBox="0 0 50 50" fill="none" xmlns="http://www.w3.org/2000/svg">
<g clip-path="url(#clip0_15_4685)">
<path d="M5.75415 12.3441L6.14568 12.001L14.4169 19.2491L14.0253 19.5922L5.75415 12.3441Z" fill="white"/>
<path d="M16.095 21.4041L16.4865 21.061L19.2001 23.4375L18.8085 23.7806L16.0967 21.4041H16.095Z" fill="white"/>
<mask id="mask0_15_4685" style="mask-type:luminance" maskUnits="userSpaceOnUse" x="0" y="22" width="11" height="4">
<path d="M10.4322 22.2656H0V25.6327H10.4322V22.2656Z" fill="white"/>
</mask>
<g mask="url(#mask0_15_4685)">
<path d="M-1.02539 22.8866L-0.883018 22.4172L10.417 25.0699L10.2729 25.5393L-1.02539 22.8866Z" fill="white"/>
</g>
<path d="M13.1033 26.2059L13.2473 25.7366L16.9507 26.6055L16.8084 27.0748L13.1033 26.2044V26.2059Z" fill="white"/>
<mask id="mask1_15_4685" style="mask-type:luminance" maskUnits="userSpaceOnUse" x="0" y="31" width="11" height="5">
<path d="M10.4322 31.7712H0V35.1383H10.4322V31.7712Z" fill="white"/>
</mask>
<g mask="url(#mask1_15_4685)">
<path d="M-1.02368 34.5204L10.2763 31.8662L10.4187 32.3356L-0.879614 34.9897L-1.02368 34.5204Z" fill="white"/>
</g>
<path d="M13.1001 31.2085L16.8035 30.3381L16.9476 30.8075L13.2425 31.6778L13.1001 31.2085Z" fill="white"/>
<path d="M5.75415 45.0674L14.0253 37.8193L14.4169 38.1624L6.14568 45.4105L5.75415 45.0674Z" fill="white"/>
<path d="M16.095 36.0073L18.8068 33.6309L19.1984 33.974L16.4865 36.3504L16.095 36.0073Z" fill="white"/>
<mask id="mask2_15_4685" style="mask-type:luminance" maskUnits="userSpaceOnUse" x="17" y="41" width="5" height="9">
<path d="M21.2796 41.2771H17.4373V50.0001H21.2796V41.2771Z" fill="white"/>
</mask>
<g mask="url(#mask2_15_4685)">
<path d="M17.6492 51.227L20.6797 41.3247L21.2153 41.451L18.1848 51.3532L17.6492 51.227Z" fill="white"/>
</g>
<path d="M21.4304 38.8457L22.4236 35.5989L22.9592 35.7251L21.966 38.9704L21.4304 38.8457Z" fill="white"/>
<mask id="mask3_15_4685" style="mask-type:luminance" maskUnits="userSpaceOnUse" x="28" y="41" width="5" height="9">
<path d="M32.127 41.2771H28.2847V50.0001H32.127V41.2771Z" fill="white"/>
</mask>
<g mask="url(#mask3_15_4685)">
<path d="M28.427 41.4539L28.9626 41.3276L31.9897 51.2299L31.4541 51.3562L28.427 41.4539Z" fill="white"/>
</g>
<path d="M26.6814 35.7281L27.217 35.6018L28.2102 38.8486L27.6746 38.9734L26.6831 35.7281H26.6814Z" fill="white"/>
<path d="M35.217 38.161L35.6086 37.8179L43.8814 45.0675L43.4899 45.4106L35.217 38.161Z" fill="white"/>
<path d="M30.4373 33.9725L30.8288 33.6294L33.5406 36.0073L33.1491 36.3504L30.4373 33.9725Z" fill="white"/>
<mask id="mask4_15_4685" style="mask-type:luminance" maskUnits="userSpaceOnUse" x="39" y="31" width="11" height="5">
<path d="M50.0001 31.7712H39.1323V35.1383H50.0001V31.7712Z" fill="white"/>
</mask>
<g mask="url(#mask4_15_4685)">
<path d="M39.2273 32.3402L39.3697 31.8708L50.6697 34.5235L50.5273 34.9929L39.2273 32.3402Z" fill="white"/>
</g>
<path d="M32.6914 30.8089L32.8355 30.3396L36.5389 31.21L36.3965 31.6793L32.6914 30.8104V30.8089Z" fill="white"/>
<mask id="mask5_15_4685" style="mask-type:luminance" maskUnits="userSpaceOnUse" x="39" y="22" width="11" height="4">
<path d="M50.0001 22.2656H39.1323V25.6327H50.0001V22.2656Z" fill="white"/>
</mask>
<g mask="url(#mask5_15_4685)">
<path d="M39.2256 25.0729L50.5239 22.4187L50.668 22.888L39.368 25.5422L39.2256 25.0729Z" fill="white"/>
</g>
<path d="M32.6914 26.6101L36.3948 25.7397L36.5389 26.2091L32.8338 27.0795L32.6914 26.6101Z" fill="white"/>
<path d="M35.217 19.2476L43.4882 11.9995L43.8798 12.3426L35.6086 19.5907L35.217 19.2476Z" fill="white"/>
<path d="M30.4373 23.4375L33.1491 21.0596L33.5406 21.4027L30.8288 23.7791L30.4373 23.436V23.4375Z" fill="white"/>
<mask id="mask6_15_4685" style="mask-type:luminance" maskUnits="userSpaceOnUse" x="28" y="6" width="5" height="11">
<path d="M32.127 6.18457H28.2847V16.1255H32.127V6.18457Z" fill="white"/>
</mask>
<g mask="url(#mask6_15_4685)">
<path d="M28.4304 15.9606L31.4609 6.05835L31.9965 6.1846L28.966 16.0854L28.4304 15.9606Z" fill="white"/>
</g>
<path d="M26.6797 21.6789L27.6729 18.4321L28.2085 18.5584L27.2153 21.8037L26.6797 21.6789Z" fill="white"/>
<mask id="mask7_15_4685" style="mask-type:luminance" maskUnits="userSpaceOnUse" x="17" y="6" width="5" height="11">
<path d="M21.2796 6.18457H17.4373V16.1255H21.2796V6.18457Z" fill="white"/>
</mask>
<g mask="url(#mask7_15_4685)">
<path d="M17.6475 6.18606L18.1831 6.05981L21.2102 15.9621L20.6746 16.0883L17.6475 6.18606Z" fill="white"/>
</g>
<path d="M21.4338 18.5584L21.9694 18.4336L22.9609 21.6804L22.4253 21.8051L21.4321 18.5584H21.4338Z" fill="white"/>
<path d="M24.5457 10.2988H25.0999V19.7986H24.5457V10.2988Z" fill="white"/>
<path d="M25.1203 6.18457H24.4424V8.6011H25.1203V6.18457Z" fill="white"/>
<mask id="mask8_15_4685" style="mask-type:luminance" maskUnits="userSpaceOnUse" x="24" y="6" width="2" height="3">
<path d="M25.1203 6.18457H24.4424V8.6011H25.1203V6.18457Z" fill="white"/>
</mask>
<g mask="url(#mask8_15_4685)">
<path d="M24.5457 6.12207H25.0999V8.4272H24.5457V6.12207Z" fill="white"/>
</g>
<path d="M14.083 12.8876L14.5627 12.644L19.983 20.8724L19.5033 21.116L14.083 12.8876Z" fill="white"/>
<path d="M11.6948 9.26653L12.1745 9.02295L13.4897 11.0191L13.0101 11.2627L11.6948 9.26653Z" fill="white"/>
<path d="M6.49658 19.7155L6.77455 19.2952L16.1644 24.045L15.8864 24.4654L6.49658 19.7155Z" fill="white"/>
<path d="M2.36279 17.6271L2.64076 17.2068L4.91873 18.3594L4.64076 18.7797L2.36279 17.6256V17.6271Z" fill="white"/>
<path d="M3.81689 28.4636H14.6576V28.9493H3.81689V28.4636Z" fill="white"/>
<mask id="mask9_15_4685" style="mask-type:luminance" maskUnits="userSpaceOnUse" x="0" y="28" width="2" height="1">
<path d="M1.84407 28.4043H0V28.9984H1.84407V28.4043Z" fill="white"/>
</mask>
<g mask="url(#mask9_15_4685)">
<path d="M-0.949219 28.4636H1.68129V28.9493H-0.949219V28.4636Z" fill="white"/>
</g>
<path d="M6.49829 37.6962L15.8864 32.9463L16.1644 33.3666L6.77626 38.118L6.49829 37.6977V37.6962Z" fill="white"/>
<path d="M2.3645 39.7888L4.64247 38.6362L4.92043 39.0566L2.64247 40.2106L2.3645 39.7903V39.7888Z" fill="white"/>
<path d="M14.0813 44.5252L19.5016 36.2983L19.9813 36.5419L14.561 44.7688L14.0813 44.5252Z" fill="white"/>
<path d="M11.6965 48.1405L13.0135 46.1443L13.4931 46.3879L12.1779 48.3841L11.6982 48.1405H11.6965Z" fill="white"/>
<path d="M24.5457 37.6069H25.0999V47.1067H24.5457V37.6069Z" fill="white"/>
<mask id="mask10_15_4685" style="mask-type:luminance" maskUnits="userSpaceOnUse" x="24" y="48" width="2" height="2">
<path d="M25.1203 48.8013H24.4424V49.9999H25.1203V48.8013Z" fill="white"/>
</mask>
<g mask="url(#mask10_15_4685)">
<path d="M24.5457 48.9854H25.0999V51.2905H24.5457V48.9854Z" fill="white"/>
</g>
<path d="M29.6577 36.5316L30.1374 36.2896L35.5577 44.5164L35.0781 44.76L29.6577 36.5316Z" fill="white"/>
<path d="M36.1543 46.3908L36.6339 46.1472L37.9492 48.1434L37.4695 48.387L36.1526 46.3908H36.1543Z" fill="white"/>
<path d="M33.4814 33.3666L33.7594 32.9463L43.1492 37.6962L42.8713 38.1165L33.4814 33.3666Z" fill="white"/>
<path d="M44.7253 39.0566L45.0033 38.6362L47.2813 39.7903L47.0033 40.2106L44.7253 39.058V39.0566Z" fill="white"/>
<path d="M34.9814 28.4636H45.8221V28.9493H34.9814V28.4636Z" fill="white"/>
<path d="M50 28.4043H47.9458V28.9984H50V28.4043Z" fill="white"/>
<mask id="mask11_15_4685" style="mask-type:luminance" maskUnits="userSpaceOnUse" x="47" y="28" width="3" height="1">
<path d="M50 28.4043H47.9458V28.9984H50V28.4043Z" fill="white"/>
</mask>
<g mask="url(#mask11_15_4685)">
<path d="M47.9644 28.4636H50.5949V28.9493H47.9644V28.4636Z" fill="white"/>
</g>
<path d="M33.4849 24.0436L42.873 19.2937L43.151 19.714L33.7628 24.4654L33.4849 24.0451V24.0436Z" fill="white"/>
<path d="M44.7288 18.352L47.0067 17.1995L47.2847 17.6198L45.0067 18.7724L44.7288 18.352Z" fill="white"/>
<path d="M29.6626 20.8724L35.0829 12.6455L35.5626 12.8891L30.1423 21.116L29.6626 20.8724Z" fill="white"/>
<path d="M36.156 11.0221L37.473 9.02588L37.9526 9.26946L36.6374 11.2657L36.1577 11.0221H36.156Z" fill="white"/>
<mask id="mask12_15_4685" style="mask-type:luminance" maskUnits="userSpaceOnUse" x="14" y="15" width="25" height="13">
<path d="M38.8592 15.0383H14.283V27.069H38.8592V15.0383Z" fill="white"/>
</mask>
<g mask="url(#mask12_15_4685)">
<path d="M38.6931 21.0804C38.5762 20.2338 38.3067 19.411 37.8999 18.6372C37.5626 18.0015 37.0948 17.1697 36.1931 17.1088C35.688 17.0747 35.2016 17.2737 34.7423 17.4371C34.227 17.6257 33.7118 17.8129 33.1965 18C33.1745 18.0074 33.1626 18.0193 33.1491 18.0312C33.1372 18.0119 33.1152 17.9926 33.0796 17.9851C31.0796 17.4564 29.144 16.7598 27.2999 15.8983C26.4592 15.5003 25.6372 14.9953 24.6372 15.0399C23.9965 15.0711 23.4813 15.3042 22.9999 15.6132C22.9914 15.6176 22.9779 15.6176 22.9694 15.6206C21.3372 16.3944 19.6745 17.1371 18.1321 18.0475C17.7779 18.2584 17.4084 18.4723 17.1186 18.7515C16.8152 19.0456 16.6389 19.4065 16.4779 19.7749C16.1016 20.6393 15.7813 21.5245 15.5084 22.4172C15.2016 23.4286 14.9626 24.4535 14.7847 25.4887V25.5006C14.4253 26.0249 14.0914 26.6829 14.7575 26.9814C15.5033 27.3111 16.3203 26.6145 16.7236 26.1081C16.8796 26.2343 17.1101 26.2878 17.3728 26.2269C17.944 26.0932 18.4423 25.6491 18.8016 25.254C19.2219 24.7951 19.5558 24.2812 19.9016 23.7762C20.105 23.4851 20.3084 23.191 20.5643 22.9341C20.8762 22.6236 21.2558 22.4291 21.6813 22.2642C21.7677 22.23 21.8542 22.1988 21.9457 22.1647C22.9762 22.7127 24.0067 23.341 25.1372 23.7153C26.3508 24.1178 27.644 24.0064 28.8999 23.8802C28.9592 23.8727 28.9982 23.8371 29.0169 23.7955C29.0643 23.8267 29.1118 23.8564 29.1643 23.8876C30.9745 24.9436 33.2033 24.7372 35.1694 24.1742C36.3219 23.8445 37.4728 23.4465 38.4999 22.8717C38.5219 22.8598 38.5338 22.8449 38.544 22.8331C38.5745 22.8286 38.6033 22.8212 38.6304 22.8019C38.7558 22.7217 38.7389 22.5405 38.7474 22.4231C38.7745 21.9746 38.7558 21.523 38.6914 21.076L38.6931 21.0804Z" fill="white"/>
</g>
<path d="M22.9677 17.2128C22.4948 17.8024 21.7643 18.2198 21.127 18.6594C20.5169 19.0842 19.8372 19.4867 19.3033 19.9888C18.7847 20.4759 18.5457 21.1072 18.3033 21.731C18.0575 22.3711 17.8457 23.0172 17.5728 23.6455C17.4304 23.9752 17.2728 24.296 17.0881 24.6064C16.9152 24.8976 16.6372 25.1812 16.5558 25.5065C16.4304 25.9877 16.8423 26.3561 17.3881 26.2298C17.9592 26.0962 18.4575 25.6521 18.8169 25.257C19.2372 24.798 19.5711 24.2841 19.9169 23.7792C20.1203 23.488 20.3236 23.194 20.5796 22.937C20.8914 22.6266 21.2711 22.432 21.6965 22.2672C22.2897 22.034 22.9694 21.7889 23.6287 21.774C23.727 21.7696 23.7881 21.6775 23.7406 21.6018C23.7016 21.6597 23.6677 21.7161 23.6287 21.774C24.7016 21.7934 25.8016 21.6938 26.7626 22.2033C27.6457 22.6711 28.3169 23.3945 29.1796 23.8965C30.9897 24.9525 33.2186 24.7461 35.1847 24.1831C36.3355 23.8534 37.4881 23.4554 38.5152 22.8806C38.6575 22.8004 38.5236 22.6013 38.3847 22.6815C37.4592 23.2029 36.4372 23.5653 35.4016 23.8802C34.3711 24.1906 33.2931 24.4312 32.1965 24.4282C31.1355 24.4282 30.1101 24.1831 29.2304 23.6514C28.3948 23.1464 27.7321 22.438 26.8542 21.9864C25.8575 21.474 24.7321 21.5691 23.6287 21.5468C23.5287 21.5468 23.4677 21.6463 23.5152 21.7191C23.5542 21.6612 23.5881 21.6047 23.6287 21.5468C23.0948 21.5572 22.5626 21.7191 22.0745 21.884C21.5152 22.0726 20.9474 22.2865 20.5203 22.6607C19.6203 23.4613 19.2203 24.605 18.3152 25.41C18.0982 25.6016 17.8558 25.7768 17.583 25.9075C17.4491 25.9729 17.2796 26.0382 17.1236 26.0264C16.7948 26.0071 16.7525 25.7085 16.8338 25.4857C16.9457 25.1872 17.1982 24.9228 17.3609 24.6436C17.5253 24.3643 17.6677 24.0732 17.7982 23.7777C18.0542 23.2044 18.2575 22.6147 18.4728 22.028C18.7067 21.3998 18.927 20.7121 19.4338 20.2101C19.9965 19.6546 20.7406 19.2224 21.4033 18.7634C22.0355 18.3238 22.7321 17.9138 23.1999 17.3272C23.2864 17.2113 23.0609 17.0969 22.966 17.2158L22.9677 17.2128Z" fill="#54473C"/>
<mask id="mask13_15_4685" style="mask-type:luminance" maskUnits="userSpaceOnUse" x="14" y="15" width="20" height="13">
<path d="M33.2558 15.0383H14.283V27.069H33.2558V15.0383Z" fill="white"/>
</mask>
<g mask="url(#mask13_15_4685)">
<path d="M16.5625 25.9208C16.3337 26.2312 16.0252 26.5372 15.649 26.7065C15.3202 26.8521 14.6829 26.9367 14.6439 26.4644C14.6134 26.0812 14.9863 25.6951 15.1981 25.3846C15.4269 25.0445 15.649 24.6999 15.8557 24.3479C16.2812 23.6395 16.6659 22.9087 17.0083 22.1646C17.1863 21.7858 17.3507 21.3982 17.5015 21.012C17.6439 20.6481 17.7693 20.2724 17.9913 19.9367C18.2252 19.5802 18.5727 19.301 18.9185 19.0292C19.2863 18.7381 19.6591 18.4499 20.032 18.1633C20.7812 17.5855 21.5303 17.0063 22.288 16.4359C23.0151 15.8849 23.7202 15.2908 24.7388 15.2759C25.6913 15.2611 26.5015 15.7928 27.3117 16.1641C29.1354 17.0063 31.0524 17.6924 33.0219 18.2123C33.1829 18.2554 33.2507 18.0326 33.0913 17.991C31.0913 17.4622 29.1557 16.7656 27.3117 15.9042C26.4625 15.5017 25.6405 14.9967 24.6388 15.0427C23.6422 15.0888 22.9422 15.6279 22.2185 16.176C21.3829 16.8117 20.5524 17.4474 19.7252 18.0905C18.9981 18.6534 18.0981 19.2044 17.6608 19.9931C17.4574 20.3644 17.3269 20.7625 17.171 21.1531C16.9846 21.6121 16.7812 22.068 16.5608 22.5196C16.1541 23.3543 15.6896 24.1697 15.1744 24.9628C14.8676 25.4337 13.8235 26.5714 14.7625 26.9887C15.5422 27.3333 16.4083 26.5491 16.7896 26.0396C16.8812 25.9134 16.6557 25.7946 16.5642 25.9208H16.5625Z" fill="#54473C"/>
</g>
<mask id="mask14_15_4685" style="mask-type:luminance" maskUnits="userSpaceOnUse" x="33" y="16" width="6" height="7">
<path d="M38.8593 16.9187H33.0305V22.8598H38.8593V16.9187Z" fill="white"/>
</mask>
<g mask="url(#mask14_15_4685)">
<path d="M38.3694 22.7811C38.4474 22.8464 38.5474 22.8657 38.6372 22.8078C38.7626 22.7276 38.7457 22.5464 38.7541 22.429C38.7813 21.9805 38.7626 21.529 38.6982 21.0819C38.5813 20.2353 38.3135 19.4125 37.9067 18.6387C37.5694 18.003 37.1016 17.1712 36.1999 17.1103C35.6931 17.0762 35.2084 17.2752 34.7491 17.4386C34.2338 17.6272 33.7186 17.8143 33.2033 18.0015C33.0525 18.0549 33.1169 18.2807 33.2728 18.2228C33.6762 18.0772 34.0779 17.9317 34.4813 17.7831C34.8677 17.642 35.2558 17.4772 35.6626 17.3881C36.1084 17.2885 36.5287 17.339 36.8711 17.6212C37.1491 17.847 37.3338 18.1574 37.5084 18.4515C37.8796 19.0798 38.1491 19.7496 38.3135 20.4432C38.3948 20.7908 38.4525 21.1443 38.4779 21.4993C38.4914 21.6686 38.4999 21.8364 38.4999 22.0043C38.4999 22.1543 38.4186 22.5063 38.5474 22.6177C38.4304 22.5152 38.2474 22.6801 38.3694 22.7781V22.7811Z" fill="#54473C"/>
</g>
<path d="M22.9712 15.6234C21.339 16.3972 19.6763 17.1399 18.1339 18.0503C17.7797 18.2612 17.4102 18.4751 17.1204 18.7544C16.817 19.0484 16.6407 19.4094 16.4797 19.7777C16.1034 20.6421 15.7831 21.5273 15.5102 22.42C15.2034 23.4315 14.9644 24.4563 14.7865 25.4915C14.7593 25.6371 15.0119 25.698 15.0373 25.5524C15.3373 23.7909 15.8254 22.0606 16.5017 20.3837C16.6695 19.9663 16.8271 19.5178 17.1 19.1465C17.3678 18.79 17.7712 18.5449 18.1661 18.3117C18.8932 17.8751 19.6559 17.4815 20.4221 17.1013C21.3085 16.6616 22.2068 16.2428 23.1017 15.8224C23.2492 15.7497 23.1187 15.5506 22.9712 15.6234Z" fill="#54473C"/>
<path d="M28.9084 23.6572C27.6745 23.7835 26.405 23.8949 25.2152 23.4998C24.0762 23.124 23.0406 22.4735 22.0017 21.9269C21.8593 21.8497 21.7237 22.0487 21.8711 22.1259C22.9322 22.6814 23.9881 23.3364 25.1491 23.7226C26.361 24.1251 27.6559 24.0137 28.9118 23.8875C29.0728 23.8682 29.0728 23.6379 28.9084 23.6572Z" fill="#54473C"/>
<mask id="mask15_15_4685" style="mask-type:luminance" maskUnits="userSpaceOnUse" x="13" y="31" width="27" height="13">
<path d="M39.3593 31.3555H13.822V43.2376H39.3593V31.3555Z" fill="white"/>
</mask>
<g mask="url(#mask15_15_4685)">
<path d="M38.9135 31.4565C38.1677 31.1 37.2999 31.758 36.8542 32.2586C36.8372 32.2437 36.827 32.2274 36.805 32.211C36.3406 31.8857 35.6626 32.2808 35.283 32.5393C34.7999 32.8645 34.4169 33.2834 34.0677 33.7141C33.6254 34.2577 33.2508 34.8696 32.7152 35.3464C32.1881 35.8202 31.4321 36.04 30.7169 36.2584H30.6864C29.3423 36.5168 27.8847 35.8707 26.8491 35.1622C25.9067 34.5162 24.9626 33.726 23.6864 33.7334C23.6237 33.7334 23.5931 33.7691 23.5745 33.8077C22.8101 33.3933 21.9355 33.169 21.0372 33.1066C19.844 33.0249 18.6474 33.224 17.5033 33.5106C16.3677 33.7928 15.2474 34.133 14.2237 34.6409C14.2016 34.6528 14.1881 34.6647 14.1796 34.681C14.1474 34.6855 14.1169 34.6929 14.0847 34.7122C13.9559 34.7909 13.9643 34.9751 13.9508 35.0954C13.8965 35.5529 13.8931 36.0163 13.9321 36.4737C14.0084 37.35 14.2457 38.216 14.6338 39.0254C14.9457 39.6834 15.3796 40.533 16.2948 40.6265C16.8186 40.6815 17.327 40.5018 17.8101 40.3488C18.3508 40.1795 18.8915 40.0116 19.4321 39.8393C19.4491 39.8319 19.4677 39.8245 19.4813 39.8126C19.4948 39.8364 19.5169 39.8557 19.5525 39.8631C21.5982 40.4929 23.5728 41.2964 25.4406 42.2678C26.2898 42.7104 27.1101 43.2495 28.1423 43.2302C29.1694 43.2109 29.9203 42.6703 30.6932 42.1415C31.5915 41.5311 32.4796 40.9117 33.3694 40.2938C34.1508 39.7458 35.0982 39.2259 35.5813 38.4298C35.8135 38.0466 35.9694 37.6278 36.1626 37.2282C36.3711 36.7871 36.5999 36.3519 36.8372 35.9242C37.2965 35.1013 37.8101 34.2993 38.3745 33.5285C38.7084 33.0591 39.8796 31.9155 38.9152 31.4535L38.9135 31.4565Z" fill="white"/>
</g>
<path d="M14.3559 34.8472C15.205 34.4254 16.1203 34.1269 17.0508 33.8729C18.0372 33.6026 19.0559 33.3798 20.0932 33.3323C21.0406 33.2892 22.0101 33.3991 22.8813 33.7467C23.7576 34.0957 24.4355 34.6943 25.1186 35.2705C25.7084 35.7681 26.3423 36.2419 27.1508 36.4335C27.8881 36.6102 28.661 36.5895 29.4203 36.6325C30.1847 36.6756 31.0779 36.79 31.605 37.3336C31.9762 37.7168 31.9 38.2114 31.3542 38.4178C30.9033 38.5901 30.3847 38.4802 29.9118 38.4446C27.7576 38.2841 25.6627 39.0713 23.5101 38.8367C23.3389 38.8174 23.3389 39.052 23.5101 39.0713C25.6135 39.303 27.6559 38.5589 29.7593 38.6688C30.5101 38.7074 31.6847 38.9391 32.0559 38.1371C32.3644 37.4672 31.5644 36.8806 30.9389 36.6578C30.183 36.383 29.3389 36.3993 28.5389 36.3637C28.0966 36.3444 27.6508 36.3132 27.2203 36.2063C26.7288 36.0889 26.2949 35.8617 25.9017 35.581C25.1423 35.0329 24.5118 34.363 23.6898 33.8818C22.8949 33.4154 21.9661 33.1778 21.0186 33.1139C19.8254 33.0322 18.6288 33.2313 17.4847 33.5179C16.3627 33.7957 15.2423 34.1358 14.2186 34.6452C14.0661 34.724 14.205 34.9245 14.3525 34.8487L14.3559 34.8472Z" fill="#54473C"/>
<path d="M30.3305 36.6238C30.978 36.4084 31.6898 36.2317 32.2915 35.9272C32.8136 35.6613 33.1847 35.2425 33.5254 34.8117C34.2 33.9666 34.8119 32.9566 35.8966 32.462C36.2085 32.318 36.7847 32.2081 36.7678 32.6893C36.7593 32.9953 36.4491 33.273 36.2712 33.5151C35.9186 34.0082 35.6458 34.537 35.3949 35.0731C35.1322 35.645 34.8983 36.2242 34.6305 36.7961C34.3525 37.3946 34.0576 37.9397 33.4949 38.3689C32.8695 38.8427 32.1508 39.2378 31.4763 39.6611C30.8593 40.0443 30.1898 40.4097 29.7203 40.937C29.6186 41.0543 29.8051 41.2236 29.9085 41.1018C30.3864 40.5612 31.0746 40.1973 31.7 39.8067C32.3254 39.4146 32.9814 39.0433 33.5763 38.6125C34.7119 37.7986 35.061 36.4396 35.578 35.293C35.8593 34.6677 36.1763 34.0528 36.6017 33.4884C36.8644 33.1408 37.3119 32.5645 36.7932 32.2036C36.3288 31.8783 35.6508 32.2734 35.2695 32.5319C34.7881 32.8571 34.4034 33.276 34.0542 33.7067C33.6119 34.2503 33.2373 34.8622 32.7017 35.339C32.0627 35.9108 31.0881 36.1143 30.2525 36.3921C30.0966 36.4515 30.1678 36.6787 30.3288 36.6238H30.3305Z" fill="#54473C"/>
<mask id="mask16_15_4685" style="mask-type:luminance" maskUnits="userSpaceOnUse" x="19" y="31" width="21" height="13">
<path d="M39.3594 31.3555H19.2458V43.2376H39.3594V31.3555Z" fill="white"/>
</mask>
<g mask="url(#mask16_15_4685)">
<path d="M37.0051 32.4664C37.2542 32.162 37.5949 31.8634 37.9915 31.7075C38.3441 31.5708 38.9932 31.5248 39.0051 32.006C39.0136 32.3937 38.6085 32.7739 38.3797 33.0784C38.1203 33.423 37.8695 33.775 37.6288 34.1314C37.1542 34.8325 36.7254 35.5528 36.3373 36.2895C36.1491 36.646 35.9712 37.0099 35.8017 37.3738C35.6271 37.754 35.4746 38.1446 35.2254 38.4966C34.9695 38.8531 34.6034 39.1264 34.2339 39.3893C33.8407 39.667 33.4441 39.9448 33.0458 40.2225C32.2424 40.7824 31.4373 41.3379 30.6288 41.8905C29.8525 42.4222 29.0881 43.0103 28.0424 42.9985C27.0559 42.9866 26.2508 42.4192 25.439 42.0004C23.5932 41.0528 21.6407 40.2656 19.622 39.6433C19.4559 39.5928 19.3881 39.82 19.5508 39.8705C21.5966 40.5002 23.5712 41.3038 25.439 42.2737C26.2881 42.7163 27.1085 43.2554 28.1407 43.2361C29.1678 43.2168 29.9186 42.6762 30.6915 42.1474C31.5898 41.537 32.478 40.9176 33.3678 40.2997C34.1491 39.7517 35.0966 39.2318 35.5797 38.4357C35.8119 38.0525 35.9678 37.6337 36.161 37.2341C36.3695 36.7915 36.5983 36.3564 36.8356 35.9301C37.2949 35.1072 37.8085 34.3052 38.3729 33.5344C38.7119 33.065 39.883 31.9214 38.9169 31.4594C38.1254 31.0792 37.2017 31.8426 36.7813 32.3476C36.6746 32.4694 36.9068 32.5868 37.0051 32.465V32.4664Z" fill="#54473C"/>
</g>
<path d="M14.3592 34.7449C14.283 34.6751 14.1762 34.6543 14.0813 34.7137C13.9524 34.7925 13.9609 34.9766 13.9474 35.0969C13.8931 35.5544 13.8897 36.0178 13.9287 36.4753C14.005 37.3516 14.2423 38.2175 14.6304 39.027C14.9423 39.6849 15.3762 40.5345 16.2914 40.6281C16.8152 40.683 17.3236 40.5033 17.8067 40.3503C18.3474 40.181 18.888 40.0132 19.4287 39.8409C19.5897 39.7904 19.5219 39.5631 19.3575 39.6136C18.9321 39.7473 18.5135 39.8795 18.0897 40.0087C17.683 40.1335 17.2728 40.2909 16.8474 40.3607C16.383 40.4394 15.9541 40.3682 15.6185 40.0681C15.3474 39.8216 15.1711 39.5008 15.0067 39.1903C14.6575 38.5368 14.4168 37.8358 14.288 37.1199C14.2202 36.759 14.1863 36.3995 14.1762 36.0356C14.1711 35.8633 14.1762 35.6911 14.1813 35.5188C14.1897 35.3747 14.2931 35.0138 14.1677 34.8994C14.288 35.0167 14.4762 34.8519 14.3609 34.7435L14.3592 34.7449Z" fill="#54473C"/>
<path d="M23.6746 33.9667C25.1034 33.9592 26.0695 35.0153 27.1628 35.6584C28.1865 36.2569 29.5085 36.7233 30.7458 36.4842C30.9153 36.453 30.8441 36.2257 30.6746 36.2569C29.3306 36.5154 27.8729 35.8693 26.8373 35.1608C25.895 34.5147 24.9509 33.7246 23.6746 33.732C23.5001 33.7364 23.5001 33.9711 23.6746 33.9667Z" fill="#54473C"/>
<path d="M6.31013 5.34537L6.79319 6.03304L8.16268 5.29041L8.50166 5.77312L7.13217 6.51575L7.79996 7.4589L7.11861 7.82724L5.28979 5.231L7.52539 4.02051L7.86437 4.50322L6.31013 5.34537Z" fill="white"/>
<path d="M9.75586 3.03432L10.4864 2.74023L11.9406 5.51323L11.2101 5.80731L9.75586 3.03432Z" fill="white"/>
<path d="M16.2204 4.14379L15.2916 3.50662L15.2493 3.51553L14.5815 3.69821L14.8713 4.51214L14.1052 4.72305L13.0713 1.81193L14.5052 1.41833C14.7984 1.33961 15.0696 1.31436 15.3171 1.3411C15.5662 1.36783 15.7781 1.44507 15.9526 1.56983C16.1272 1.69311 16.251 1.86391 16.3272 2.08076C16.4052 2.29761 16.412 2.50109 16.3493 2.68972C16.2848 2.87835 16.1594 3.04321 15.9713 3.18431L17.0476 3.921L16.2204 4.14379ZM15.5459 2.29315C15.4899 2.13126 15.3848 2.02135 15.2323 1.96491C15.0815 1.90847 14.8899 1.91441 14.6594 1.97679L14.0306 2.1476L14.3916 3.165L15.0204 2.9942C15.251 2.93033 15.4103 2.83825 15.5001 2.71942C15.5899 2.59763 15.6035 2.45505 15.5459 2.29167V2.29315Z" fill="white"/>
<path d="M21.7169 0.130636L22.1932 3.15315L21.5407 3.23336L19.5322 1.60848L19.822 3.43981L19.0339 3.53635L18.5576 0.513834L19.2186 0.43363L21.2237 2.06445L20.9339 0.225693L21.7186 0.12915L21.7169 0.130636Z" fill="white"/>
<path d="M24.5898 0L26.1712 0.0460433C26.5475 0.0579254 26.878 0.132189 27.1593 0.268833C27.4441 0.403992 27.661 0.58668 27.8119 0.819867C27.9644 1.05305 28.0356 1.32337 28.0237 1.62785C28.0119 1.93382 27.922 2.19819 27.7525 2.42247C27.583 2.64823 27.3508 2.81904 27.0576 2.93637C26.7627 3.05371 26.4271 3.10718 26.0508 3.09381L24.4695 3.04777L24.5898 0ZM26.0305 2.51604C26.378 2.52644 26.6593 2.45069 26.8712 2.28731C27.0847 2.12245 27.1983 1.89371 27.2102 1.60409C27.222 1.31298 27.1271 1.07979 26.9271 0.904527C26.7271 0.729266 26.4525 0.637179 26.1051 0.625297L25.3712 0.603018L25.2966 2.49376L26.0305 2.51604Z" fill="white"/>
<path d="M32.7898 3.30467L32.6627 3.86165L30.022 3.40419L30.6965 0.411377L33.2779 0.856957L33.1542 1.41096L31.3576 1.10203L31.2084 1.75257L32.7932 2.02735L32.6728 2.56947L31.0881 2.29469L30.9321 2.98534L32.7898 3.30765V3.30467Z" fill="white"/>
<path d="M40.5864 4.79292C40.7373 4.9162 40.8305 5.05879 40.8695 5.21622C40.9085 5.37663 40.8831 5.5415 40.7915 5.71082C40.6593 5.9544 40.4492 6.0955 40.1627 6.13412C39.878 6.17571 39.5322 6.11036 39.1237 5.93955L37.5 5.2593L38.9966 2.50562L40.5288 3.14576C40.9119 3.30617 41.1712 3.4948 41.3051 3.70868C41.4407 3.92404 41.4492 4.14089 41.3305 4.3622C41.2576 4.49439 41.1559 4.59835 41.0271 4.6741C40.8966 4.74837 40.7492 4.78847 40.5864 4.79144V4.79292ZM39.4593 3.28835L39.1102 3.9389L39.8271 4.23892C40.0085 4.31615 40.1593 4.34586 40.2831 4.32804C40.4051 4.30873 40.4949 4.24783 40.5508 4.14238C40.6085 4.03544 40.6068 3.93444 40.5441 3.84235C40.4814 3.75027 40.3576 3.66561 40.1763 3.58837L39.4593 3.28835ZM39.3322 5.43901C39.5237 5.51773 39.6797 5.54744 39.8051 5.53259C39.9322 5.51773 40.0271 5.45387 40.0915 5.34099C40.2153 5.11226 40.0864 4.91917 39.7034 4.75876L38.8559 4.4023L38.4847 5.08255L39.3322 5.43901Z" fill="white"/>
<path d="M44.0865 4.88208L44.7611 5.26528L42.8645 7.82439L42.1899 7.44119L44.0865 4.88208Z" fill="white"/>
<path d="M24.8611 29.9949C24.956 29.9949 25.0475 29.983 25.1407 29.9563L29.4255 28.7042C29.5034 28.881 29.5424 29.1082 29.5424 29.4409C29.2628 29.5835 28.9899 29.8687 28.9899 30.3603C28.9899 30.6618 29.1628 30.8772 29.3102 31.0212C28.6746 31.6673 26.9255 32.1322 24.8628 32.1322C22.2611 32.1322 20.1543 31.3955 20.1543 30.4865V28.6611L24.5848 29.9548C24.6763 29.9815 24.7679 29.9934 24.8628 29.9934L24.8611 29.9949Z" fill="white"/>
<path d="M32.4371 33.1941C32.4371 33.2713 31.5083 33.711 31.288 33.711C30.9473 33.711 30.127 33.203 30.127 32.1069C30.127 31.4608 30.1931 30.9722 30.2626 30.6276C30.0744 30.5073 29.9439 30.3201 29.9439 30.1003C29.9439 29.8582 30.0965 29.6577 30.3168 29.5418C30.2473 28.7368 30.0575 28.3091 29.688 28.009L30.3965 27.7952C30.5337 28.0284 30.9524 28.7814 31.0185 29.5032C31.2744 29.6102 31.4558 29.8344 31.4558 30.1003C31.4558 30.3662 31.271 30.5993 31.0066 30.7033C31.2371 32.4589 32.4371 33.0441 32.4371 33.1941Z" fill="white"/>
<path d="M32.1711 27.005C32.1711 27.1164 32.0897 27.2145 31.9694 27.2501L30.3965 27.7091L30.3507 27.7224L29.6033 27.9452C29.3236 27.7462 28.9507 27.6021 28.4626 27.4239C28.3423 27.3823 28.1101 27.2991 27.9762 27.2516C27.7355 27.1655 27.5185 27.0867 27.3101 27.014C26.6372 26.7793 26.0694 26.5921 25.6355 26.4525C25.1609 26.304 24.9473 26.249 24.9406 26.2476C24.7575 26.1941 24.5558 26.2787 24.4931 26.4421C24.4321 26.604 24.5304 26.7793 24.7151 26.8342C24.7304 26.8372 25.5558 27.0451 27.7067 27.8249C27.844 27.8739 27.9762 27.92 28.1016 27.963C28.3558 28.0507 28.5677 28.122 28.7457 28.1918L24.9084 29.3131C24.8762 29.3221 24.8457 29.3265 24.8135 29.3265C24.7829 29.3265 24.7524 29.3221 24.7219 29.3131L17.6575 27.2501C17.5389 27.2145 17.4575 27.1164 17.4575 27.005C17.4575 26.8937 17.5389 26.7956 17.6575 26.76L24.7219 24.6984C24.7829 24.6806 24.8474 24.6806 24.9084 24.6984L31.9694 26.76C32.0897 26.7956 32.1711 26.8937 32.1711 27.005Z" fill="white"/>
</g>
<defs>
<clipPath id="clip0_15_4685">
<rect width="50" height="50" fill="white"/>
</clipPath>
</defs>
</svg>
