<svg width="38" height="40" viewBox="0 0 38 40" fill="none" xmlns="http://www.w3.org/2000/svg">
<path d="M24.6308 24.8474L21.8743 22.0908C22.5379 21.2073 22.8962 20.1319 22.895 19.027C22.895 16.2045 20.5987 13.9082 17.7762 13.9082C14.9538 13.9082 12.6575 16.2045 12.6575 19.027C12.6575 21.8494 14.9538 24.1457 17.7762 24.1457C18.8812 24.1469 19.9566 23.7886 20.8401 23.125L23.5966 25.8815C23.7362 26.0063 23.9182 26.0729 24.1052 26.0676C24.2923 26.0624 24.4703 25.9857 24.6026 25.8534C24.735 25.721 24.8116 25.5431 24.8169 25.356C24.8221 25.1689 24.7555 24.9869 24.6308 24.8474ZM14.12 19.027C14.12 18.3038 14.3344 17.5969 14.7362 16.9956C15.1379 16.3944 15.7089 15.9258 16.377 15.649C17.0451 15.3723 17.7803 15.2999 18.4895 15.441C19.1988 15.582 19.8502 15.9303 20.3616 16.4416C20.8729 16.9529 21.2211 17.6044 21.3622 18.3137C21.5033 19.0229 21.4309 19.758 21.1542 20.4261C20.8774 21.0942 20.4088 21.6653 19.8075 22.067C19.2063 22.4688 18.4994 22.6832 17.7762 22.6832C16.8069 22.682 15.8776 22.2965 15.1921 21.611C14.5067 20.9256 14.1211 19.9963 14.12 19.027Z" fill="#2D3748"/>
</svg>
