<svg width="12" height="12" viewBox="0 0 12 12" fill="none" xmlns="http://www.w3.org/2000/svg">
<g clip-path="url(#clip0_15_4644)">
<path d="M5.99991 4.125C5.62907 4.125 5.26656 4.23497 4.95821 4.44099C4.64987 4.64702 4.40955 4.93986 4.26764 5.28247C4.12572 5.62508 4.08859 6.00208 4.16094 6.36579C4.23328 6.72951 4.41186 7.0636 4.67408 7.32582C4.93631 7.58805 5.2704 7.76662 5.63411 7.83897C5.99783 7.91132 6.37483 7.87419 6.71744 7.73227C7.06005 7.59036 7.35289 7.35003 7.55891 7.04169C7.76494 6.73335 7.87491 6.37084 7.87491 6C7.87342 5.50317 7.6754 5.02712 7.32409 4.67581C6.97278 4.3245 6.49673 4.12648 5.99991 4.125ZM10.048 6C10.0471 6.1752 10.0342 6.35013 10.0096 6.52359L11.1508 7.41703C11.2005 7.45807 11.234 7.51544 11.2452 7.5789C11.2565 7.64236 11.2449 7.70777 11.2124 7.76343L10.1329 9.62718C10.1001 9.68236 10.0488 9.72419 9.98822 9.74532C9.9276 9.76646 9.86147 9.76554 9.80147 9.74273L8.45967 9.20367C8.18027 9.41882 7.87451 9.59738 7.54983 9.73499L7.3492 11.1595C7.33798 11.2233 7.30494 11.2813 7.25573 11.3234C7.20653 11.3656 7.14422 11.3893 7.07944 11.3906H4.92038C4.85678 11.3894 4.79548 11.3666 4.74648 11.3261C4.69749 11.2855 4.66369 11.2295 4.65061 11.1673L4.44999 9.74273C4.12441 9.60671 3.81843 9.42786 3.54014 9.21093L2.19835 9.75C2.13837 9.77283 2.07226 9.77378 2.01165 9.75269C1.95103 9.7316 1.8998 9.68981 1.86694 9.63468L0.787411 7.77117C0.754917 7.7155 0.743276 7.6501 0.754568 7.58664C0.76586 7.52318 0.79935 7.4658 0.849052 7.42476L1.99022 6.53133C1.96588 6.35524 1.95304 6.17775 1.95179 6C1.95276 5.8248 1.9656 5.64987 1.99022 5.4764L0.849052 4.58297C0.79935 4.54193 0.76586 4.48455 0.754568 4.42109C0.743276 4.35763 0.754917 4.29223 0.787411 4.23656L1.86694 2.37281C1.89976 2.31764 1.95098 2.27581 2.0116 2.25467C2.07221 2.23354 2.13834 2.23446 2.19835 2.25726L3.54014 2.79633C3.81955 2.58117 4.12531 2.40262 4.44999 2.265L4.65061 0.840469C4.66184 0.77666 4.69488 0.718731 4.74408 0.676581C4.79329 0.634431 4.8556 0.610675 4.92038 0.609375H7.07944C7.14304 0.610613 7.20434 0.633373 7.25333 0.67394C7.30233 0.714507 7.33612 0.770484 7.3492 0.832734L7.54983 2.25726C7.87582 2.3932 8.18219 2.57204 8.46084 2.78906L9.80147 2.25C9.86145 2.22717 9.92756 2.22622 9.98817 2.24731C10.0488 2.2684 10.1 2.31018 10.1329 2.36531L11.2124 4.22906C11.2449 4.28473 11.2565 4.35013 11.2452 4.41359C11.234 4.47705 11.2005 4.53443 11.1508 4.57547L10.0096 5.4689C10.0339 5.64491 10.0468 5.82232 10.048 6Z" fill="white"/>
</g>
<defs>
<clipPath id="clip0_15_4644">
<rect width="12" height="12" fill="white"/>
</clipPath>
</defs>
</svg>
