<svg width="12" height="12" viewBox="0 0 12 12" fill="none" xmlns="http://www.w3.org/2000/svg">
<g clip-path="url(#clip0_15_4642)">
<path d="M7.79615 1.51335C7.34005 1.02093 6.70302 0.749756 5.9999 0.749756C5.29302 0.749756 4.65388 1.01929 4.1999 1.50866C3.74099 2.00343 3.5174 2.67585 3.5699 3.40194C3.67396 4.83444 4.76404 5.99975 5.9999 5.99975C7.23576 5.99975 8.32396 4.83467 8.42966 3.40241C8.48287 2.68288 8.25787 2.01186 7.79615 1.51335Z" fill="white"/>
<path d="M10.1249 11.2493H1.87489C1.7669 11.2507 1.65996 11.228 1.56185 11.1829C1.46374 11.1377 1.37691 11.0713 1.3077 10.9884C1.15536 10.8063 1.09395 10.5576 1.13942 10.3061C1.33723 9.2088 1.95458 8.287 2.92489 7.63989C3.78692 7.06544 4.87887 6.74927 5.99989 6.74927C7.1209 6.74927 8.21285 7.06567 9.07488 7.63989C10.0452 8.28677 10.6625 9.20856 10.8604 10.3059C10.9058 10.5574 10.8444 10.8061 10.6921 10.9882C10.6229 11.0711 10.5361 11.1376 10.438 11.1828C10.3398 11.2279 10.2329 11.2506 10.1249 11.2493Z" fill="white"/>
</g>
<defs>
<clipPath id="clip0_15_4642">
<rect width="12" height="12" fill="white"/>
</clipPath>
</defs>
</svg>
