<svg width="9" height="11" viewBox="0 0 9 11" fill="none" xmlns="http://www.w3.org/2000/svg">
<path fill-rule="evenodd" clip-rule="evenodd" d="M0.982149 0H2.75002C3.83487 0 4.71431 0.879446 4.71431 1.9643V2.94645C4.71431 3.48887 5.15404 3.9286 5.69646 3.9286H6.67861C7.76346 3.9286 8.64291 4.80804 8.64291 5.89289V10.0179C8.64291 10.5603 8.20319 11.0001 7.66076 11.0001H0.982149C0.439723 11.0001 0 10.5603 0 10.0179V0.982149C0 0.439723 0.439723 0 0.982149 0ZM4.04366 8.9207C4.19708 9.07412 4.44583 9.07412 4.59925 8.9207L6.17069 7.34927C6.32411 7.19584 6.32411 6.9471 6.17069 6.79368C6.01727 6.64026 5.76852 6.64026 5.6151 6.79368L4.71431 7.69446L4.71432 5.50003C4.71432 5.28306 4.53843 5.10717 4.32146 5.10717C4.10449 5.10717 3.9286 5.28306 3.9286 5.50003L3.9286 7.69446L3.02781 6.79368C2.87439 6.64026 2.62564 6.64026 2.47222 6.79368C2.3188 6.9471 2.3188 7.19584 2.47222 7.34926L4.04366 8.9207Z" fill="#0F172A"/>
<path d="M5.50003 1.9643C5.50003 1.2765 5.24754 0.647683 4.83018 0.165475C6.61058 0.630552 8.01236 2.03233 8.47743 3.81273C7.99523 3.39537 7.36641 3.14288 6.67861 3.14288H5.69646C5.58798 3.14288 5.50003 3.05493 5.50003 2.94645V1.9643Z" fill="#0F172A"/>
</svg>
