<svg width="10" height="10" viewBox="0 0 10 10" fill="none" xmlns="http://www.w3.org/2000/svg">
<path d="M8.54167 0C7.96637 0 7.5 0.430495 7.5 0.961538V9.03846C7.5 9.5695 7.96637 10 8.54167 10H8.95833C9.53363 10 10 9.5695 10 9.03846V0.961538C10 0.430495 9.53363 0 8.95833 0H8.54167Z" fill="#00837E"/>
<path d="M3.75 3.26923C3.75 2.73819 4.21637 2.30769 4.79167 2.30769H5.20833C5.78363 2.30769 6.25 2.73819 6.25 3.26923V9.03846C6.25 9.5695 5.78363 10 5.20833 10H4.79167C4.21637 10 3.75 9.5695 3.75 9.03846V3.26923Z" fill="#00837E"/>
<path d="M0 5.57692C0 5.04588 0.46637 4.61538 1.04167 4.61538H1.45833C2.03363 4.61538 2.5 5.04588 2.5 5.57692V9.03846C2.5 9.5695 2.03363 10 1.45833 10H1.04167C0.46637 10 0 9.5695 0 9.03846V5.57692Z" fill="#00837E"/>
</svg>
