<svg width="10" height="10" viewBox="0 0 10 10" fill="none" xmlns="http://www.w3.org/2000/svg">
<g clip-path="url(#clip0_15_4977)">
<path fill-rule="evenodd" clip-rule="evenodd" d="M5 0.125C2.30761 0.125 0.125 2.30761 0.125 5C0.125 7.6924 2.30761 9.875 5 9.875C7.6924 9.875 9.875 7.6924 9.875 5C9.875 2.30761 7.6924 0.125 5 0.125ZM5.375 3.5C5.375 3.2929 5.2071 3.125 5 3.125C4.79289 3.125 4.625 3.2929 4.625 3.5V4.625H3.5C3.2929 4.625 3.125 4.79289 3.125 5C3.125 5.2071 3.2929 5.375 3.5 5.375H4.625V6.5C4.625 6.7071 4.79289 6.875 5 6.875C5.2071 6.875 5.375 6.7071 5.375 6.5V5.375H6.5C6.7071 5.375 6.875 5.2071 6.875 5C6.875 4.79289 6.7071 4.625 6.5 4.625H5.375V3.5Z" fill="black"/>
</g>
<defs>
<clipPath id="clip0_15_4977">
<rect width="10" height="10" fill="white"/>
</clipPath>
</defs>
</svg>
